<svg xmlns="http://www.w3.org/2000/svg" fill="none" viewBox="0 0 394 80"><path fill="#000" d="M262 0h68.5v12.7h-27.2v66.6h-13.6V12.7H262V0ZM149 0v12.7H94v20.4h44.3v12.6H94v21h55v12.6H80.5V0h68.7zm34.3 0h-17.8l63.7 79.4h17.9l-32-39.9 32-39.5h-17.9l-22.9 28.6-23-28.6zm18.3 56.7-9-11.3-26.3 32.7h17.9l17.4-21.4z"/><path fill="#000" d="M81 79.3 17 0H0v79.3h13.6V17.3l50.2 62h8.9l50.2-62v62H81Zm252.6-.4c-1 0-1.8-.4-2.5-1s-1.1-1.6-1.1-2.6.3-1.8 1-2.5 1.6-1 2.6-1 1.8.3 2.5 1a3.4 3.4 0 0 1 .6 4.3 3.7 3.7 0 0 1-3 1.8zm23.2-33.5h6v23.3c0 2.1-.4 3.8-1.3 5.2a9.1 9.1 0 0 1-3.8 3.5c-1.6.8-3.5 1.3-5.7 1.3-2 0-3.7-.4-5.2-1s-2.7-1.8-3.5-3.2c-.8-1.4-1.2-3.2-1.2-5.4V45.5h6v20.6c0 1.4.2 2.5.7 3.3s1.2 1.3 2.2 1.6c1 .4 2.2.6 3.5.6 1.3 0 2.5-.2 3.5-.6 1-.4 1.8-1 2.3-1.7a5 5 0 0 0 .7-3.2V45.4zm30.9 9.1a4.4 4.4 0 0 0-2-3.3 7.5 7.5 0 0 0-4.3-1.1c-1.3 0-2.4.2-3.3.6-.9.4-1.6 1-2 1.6a4.1 4.1 0 0 0-.3 2.2c0 .9.2 1.6.7 2.2s1.2 1.1 2.2 1.4l2.8.7 3.5.9c2.1.5 4 1.3 5.5 2.3a9.1 9.1 0 0 1 3.5 4.5c.8 2 1.2 4.4 1.2 7.2 0 2-.3 3.7-1 5.2a9.8 9.8 0 0 1-3 4.1 10 10 0 0 1-4.7 2.5 19 19 0 0 1-6.2 1c-2.3 0-4.4-.2-6.2-.7a14 14 0 0 1-5.2-2.2 10 10 0 0 1-3.7-4c-.8-1.7-1.2-3.8-1.2-6.2h6c0 1.4.2 2.6.6 3.5s1.2 1.6 2.2 2 2.2.6 3.5.6c1.3 0 2.5-.2 3.5-.6 1-.4 1.8-1 2.3-1.7a5 5 0 0 0 .7-3.2c0-1.3-.3-2.3-1-3.1a6 6 0 0 0-2.8-2 25 25 0 0 0-4.2-1.1l-4.1-1c-2.1-.5-3.9-1.3-5.3-2.4a9.1 9.1 0 0 1-3.3-4.5c-.8-2-1.2-4.4-1.2-7.2 0-2 .3-3.7 1-5.2a9.8 9.8 0 0 1 3-4.1 10 10 0 0 1 4.7-2.5 19 19 0 0 1 6.2-1c2.3 0 4.4.2 6.2.7a14 14 0 0 1 5.2 2.2 10 10 0 0 1 3.7 4c.8 1.7 1.2 3.8 1.2 6.2h-6z"/></svg>
